<svg width="38" height="41" viewBox="0 0 38 41" fill="none" xmlns="http://www.w3.org/2000/svg">
<path d="M20.5127 25.9717L18.9951 26.3408L17.3545 23.6953L18.6055 22.916L20.5127 25.9717ZM25.6191 36.9844L26.9932 36.3896L29.208 39.9785L27.957 40.7783L25.6191 36.9844ZM23.1377 24.5977L21.9072 25.377L19.8975 22.1572L21.1484 21.3779L23.1377 24.5977ZM28.3057 35.7129L29.5566 34.9336L31.6895 38.3994L30.4385 39.1992L28.3057 35.7129ZM25.168 22.2598L24.2656 23.6133L22.4199 20.6396L23.6504 19.7988L25.168 22.2598ZM30.7666 34.0928L31.8945 33.0879L34.1914 36.7998L32.9404 37.5996L30.7666 34.0928ZM12.8633 13.2773C11.2773 14.8633 10.4844 16.7773 10.4844 19.0195C10.4844 21.2617 11.2773 23.1758 12.8633 24.7617C14.4492 26.3477 16.3633 27.1406 18.6055 27.1406C20.8477 27.1406 22.7617 26.3477 24.3477 24.7617C25.9336 23.1758 26.7266 21.2617 26.7266 19.0195C26.7266 16.7773 25.9336 14.8633 24.3477 13.2773C22.7617 11.6914 20.8477 10.8984 18.6055 10.8984C16.3633 10.8984 14.4492 11.6914 12.8633 13.2773ZM9.7666 22.752C9.26074 21.5625 9.00781 20.3184 9.00781 19.0195C9.00781 17.7207 9.26074 16.4834 9.7666 15.3076C10.2725 14.1182 10.9561 13.0928 11.8174 12.2314C12.6787 11.3701 13.6973 10.6865 14.873 10.1807C16.0625 9.6748 17.3066 9.42188 18.6055 9.42188C19.9043 9.42188 21.1416 9.6748 22.3174 10.1807C23.5068 10.6865 24.5322 11.3701 25.3936 12.2314C26.2549 13.0928 26.9385 14.1182 27.4443 15.3076C27.9502 16.4834 28.2031 17.7207 28.2031 19.0195C28.2031 20.3184 27.9502 21.5625 27.4443 22.752C26.9385 23.9277 26.2549 24.9463 25.3936 25.8076C24.5322 26.6689 23.5068 27.3525 22.3174 27.8584C21.1416 28.3643 19.9043 28.6172 18.6055 28.6172C17.3066 28.6172 16.0625 28.3643 14.873 27.8584C13.6973 27.3525 12.6787 26.6689 11.8174 25.8076C10.9561 24.9463 10.2725 23.9277 9.7666 22.752ZM9.00781 13.4619C8.02344 15.1572 7.53125 17.0098 7.53125 19.0195C7.53125 21.0293 8.02344 22.8818 9.00781 24.5771C10.0059 26.2725 11.3525 27.6191 13.0479 28.6172C14.7432 29.6016 16.5957 30.0938 18.6055 30.0938C20.6152 30.0938 22.4678 29.6016 24.1631 28.6172C25.8584 27.6191 27.1982 26.2725 28.1826 24.5771C29.1807 22.8818 29.6797 21.0293 29.6797 19.0195C29.6797 17.0098 29.1807 15.1572 28.1826 13.4619C27.1982 11.7666 25.8584 10.4268 24.1631 9.44238C22.4678 8.44434 20.6152 7.94531 18.6055 7.94531C16.5957 7.94531 14.7432 8.44434 13.0479 9.44238C11.3525 10.4268 10.0059 11.7666 9.00781 13.4619ZM7.73633 25.3154C6.61523 23.3877 6.05469 21.2891 6.05469 19.0195C6.05469 16.75 6.61523 14.6514 7.73633 12.7236C8.85742 10.7959 10.3818 9.27148 12.3096 8.15039C14.2373 7.0293 16.3359 6.46875 18.6055 6.46875C20.875 6.46875 22.9736 7.0293 24.9014 8.15039C26.8291 9.27148 28.3535 10.7959 29.4746 12.7236C30.5957 14.6514 31.1562 16.75 31.1562 19.0195C31.1562 21.2891 30.5957 23.3877 29.4746 25.3154C28.3535 27.2432 26.8291 28.7676 24.9014 29.8887C22.9736 31.0098 20.875 31.5703 18.6055 31.5703C16.3359 31.5703 14.2373 31.0098 12.3096 29.8887C10.3818 28.7676 8.85742 27.2432 7.73633 25.3154ZM5.68555 13.5645C4.94727 15.3008 4.57812 17.1191 4.57812 19.0195C4.57812 20.9199 4.94727 22.7383 5.68555 24.4746C6.42383 26.2109 7.41504 27.708 8.65918 28.9658C9.91699 30.21 11.4141 31.2012 13.1504 31.9395C14.8867 32.6777 16.7051 33.0469 18.6055 33.0469C20.5059 33.0469 22.3242 32.6777 24.0605 31.9395C25.7969 31.2012 27.2871 30.21 28.5312 28.9658C29.7891 27.708 30.7871 26.2109 31.5254 24.4746C32.2637 22.7383 32.6328 20.9199 32.6328 19.0195C32.6328 17.1191 32.2637 15.3008 31.5254 13.5645C30.7871 11.8281 29.7891 10.3379 28.5312 9.09375C27.2871 7.83594 25.7969 6.83789 24.0605 6.09961C22.3242 5.36133 20.5059 4.99219 18.6055 4.99219C16.7051 4.99219 14.8867 5.36133 13.1504 6.09961C11.4141 6.83789 9.91699 7.83594 8.65918 9.09375C7.41504 10.3379 6.42383 11.8281 5.68555 13.5645ZM5.17285 26.792C3.79199 24.4131 3.10156 21.8223 3.10156 19.0195C3.10156 16.2168 3.79199 13.626 5.17285 11.2471C6.56738 8.86816 8.4541 6.98828 10.833 5.60742C13.2119 4.21289 15.8027 3.51562 18.6055 3.51562C21.4082 3.51562 23.999 4.21289 26.3779 5.60742C28.7568 6.98828 30.6367 8.86816 32.0176 11.2471C33.4121 13.626 34.1094 16.2168 34.1094 19.0195C34.1094 21.8223 33.4121 24.4131 32.0176 26.792C30.6367 29.1709 28.7568 31.0576 26.3779 32.4521C23.999 33.833 21.4082 34.5234 18.6055 34.5234C15.8027 34.5234 13.2119 33.833 10.833 32.4521C8.4541 31.0576 6.56738 29.1709 5.17285 26.792ZM2.95801 12.4365C2.06934 14.5283 1.625 16.7227 1.625 19.0195C1.625 21.3164 2.06934 23.5176 2.95801 25.623C3.86035 27.7148 5.07031 29.5195 6.58789 31.0371C8.10547 32.5547 9.91016 33.7646 12.002 34.667C14.1074 35.5557 16.3086 36 18.6055 36C20.9023 36 23.0967 35.5557 25.1885 34.667C27.2939 33.7646 29.1055 32.5547 30.623 31.0371C32.1406 29.5195 33.3438 27.7148 34.2324 25.623C35.1348 23.5176 35.5859 21.3164 35.5859 19.0195C35.5859 16.7227 35.1348 14.5283 34.2324 12.4365C33.3438 10.3311 32.1406 8.51953 30.623 7.00195C29.1055 5.48438 27.2939 4.28125 25.1885 3.39258C23.0967 2.49023 20.9023 2.03906 18.6055 2.03906C16.3086 2.03906 14.1074 2.49023 12.002 3.39258C9.91016 4.28125 8.10547 5.48438 6.58789 7.00195C5.07031 8.51953 3.86035 10.3311 2.95801 12.4365ZM1.60449 26.1973C0.633789 23.9141 0.148438 21.5215 0.148438 19.0195C0.148438 16.5176 0.633789 14.1318 1.60449 11.8623C2.58887 9.5791 3.90137 7.61719 5.54199 5.97656C7.19629 4.32227 9.1582 3.00977 11.4277 2.03906C13.7109 1.05469 16.1035 0.5625 18.6055 0.5625C21.1074 0.5625 23.4932 1.05469 25.7627 2.03906C28.0459 3.00977 30.0078 4.32227 31.6484 5.97656C33.3027 7.61719 34.6152 9.5791 35.5859 11.8623C36.5703 14.1318 37.0625 16.5176 37.0625 19.0195C37.0625 21.5215 36.5703 23.9141 35.5859 26.1973C34.6152 28.4668 33.3027 30.4287 31.6484 32.083C30.0078 33.7236 28.0459 35.0293 25.7627 36C23.4932 36.9844 21.1074 37.4766 18.6055 37.4766C16.1035 37.4766 13.7109 36.9844 11.4277 36C9.1582 35.0293 7.19629 33.7236 5.54199 32.083C3.90137 30.4287 2.58887 28.4668 1.60449 26.1973Z" fill="#010088"/>
</svg>
